# xmcd
#
# Track frame offsets:
#	150
#	21801
#	39547
#	61312
#	83837
#	99205
#	121510
#	144731
#	166707
#	194612
#
# Disc length: 2847 seconds
#
# Revision: 0
# Processed by: cddbd v1.5.2PL0 Copyright (c) Steve Scherf et al.
# Submitted via: EasyCDDAExtractor 16.0.4.1
#
DISCID=770b1d0a
DTITLE=Quốc Đại - Đừng Nói Xa Nhau
DYEAR=2010
DGENRE=Pop
TTITLE0=Quốc Đại - Tình Yêu Trả Lại Trăng Sao
TTITLE1=Quốc Đại - Một Lần Dang Dỡ
TTITLE2=Cẩm Ly, Quốc Đại - Đừng Nói Xa Nhau
TTITLE3=Quốc Đại - Duyên Kiếp
TTITLE4=Quốc Đại - Tình Là Sợi Tơ
TTITLE5=Quốc Đại - Sương Khói
TTITLE6=Cẩm Ly, Quốc Đại - Biển Tình
TTITLE7=Quốc Đại - Xin Gọi Nhau Là Cố Nhân
TTITLE8=Quốc Đại - Trộm Nhìn Nhau
TTITLE9=Cẩm Ly, Quốc Đại - Tình Nghĩa Đôi Ta Chí Thế Thôi
EXTD=
EXTT0=
EXTT1=
EXTT2=
EXTT3=
EXTT4=
EXTT5=
EXTT6=
EXTT7=
EXTT8=
EXTT9=
PLAYORDER=
